<svg width="54" height="44" viewBox="0 0 54 44" fill="none" xmlns="http://www.w3.org/2000/svg">
<path d="M10.3607 16.666H48.334V37.9994H5.66732V7.25268M53.6673 0.666016H43.0006L48.334 11.3327H40.334L35.0006 0.666016H29.6673L35.0006 11.3327H27.0006L21.6673 0.666016H16.334L21.6673 11.3327H13.6673L8.33398 0.666016H5.66732C4.25283 0.666016 2.89628 1.22792 1.89608 2.22811C0.895887 3.22831 0.333984 4.58486 0.333984 5.99935V37.9994C0.333984 39.4138 0.895887 40.7704 1.89608 41.7706C2.89628 42.7708 4.25283 43.3327 5.66732 43.3327H48.334C49.7485 43.3327 51.105 42.7708 52.1052 41.7706C53.1054 40.7704 53.6673 39.4138 53.6673 37.9994V0.666016Z" fill="#476FFF"/>
</svg>
