<svg width="52" height="40" viewBox="0 0 52 40" fill="none" xmlns="http://www.w3.org/2000/svg">
<path d="M11.45 1.33377C11.2364 1.1158 10.9819 0.942051 10.7011 0.822467C10.4203 0.702882 10.1186 0.639801 9.81344 0.636829C9.50824 0.633857 9.20545 0.691052 8.92236 0.805146C8.63928 0.91924 8.38145 1.088 8.16361 1.30177C5.69945 3.75163 3.74477 6.66516 2.41235 9.87429C1.07992 13.0834 0.396128 16.5246 0.400411 19.9994C0.396414 23.6074 1.13402 27.1778 2.56746 30.4889C4.00089 33.8 6.09956 36.7812 8.73321 39.2474C9.17647 39.6571 9.76199 39.878 10.3654 39.863C10.9689 39.8481 11.5428 39.5986 11.9652 39.1674C12.9764 38.1562 12.8516 36.5466 11.8788 35.6154C9.76521 33.6011 8.08326 31.178 6.93519 28.4935C5.78712 25.809 5.1969 22.9191 5.20041 19.9994C5.20041 14.0922 7.57161 8.73537 11.418 4.83777C12.346 3.89377 12.442 2.32577 11.45 1.33377ZM17.0852 6.97537C16.6638 6.54173 16.0876 6.29284 15.483 6.28325C14.8784 6.27365 14.2946 6.50413 13.8596 6.92417C12.1282 8.63283 10.754 10.6687 9.81676 12.9135C8.87953 15.1582 8.39808 17.5669 8.40041 19.9994C8.39665 22.5714 8.93404 25.1154 9.97766 27.4662C11.0213 29.817 12.5478 31.9219 14.458 33.6442C14.8972 34.0322 15.4689 34.2364 16.0545 34.2143C16.6401 34.1923 17.1948 33.9457 17.6036 33.5258C18.6532 32.4762 18.458 30.825 17.4724 29.897C16.1214 28.627 15.0452 27.0934 14.3104 25.391C13.5757 23.6886 13.1979 21.8536 13.2004 19.9994C13.2004 16.3194 14.6628 12.9786 17.0404 10.5274C17.9556 9.58657 18.106 7.99297 17.0852 6.97537ZM34.9156 6.97537C35.3371 6.54173 35.9132 6.29284 36.5178 6.28325C37.1224 6.27365 37.7062 6.50413 38.1412 6.92417C39.8726 8.63283 41.2468 10.6687 42.1841 12.9135C43.1213 15.1582 43.6027 17.5669 43.6004 19.9994C43.6042 22.5714 43.0668 25.1154 42.0232 27.4662C40.9795 29.817 39.453 31.9219 37.5428 33.6442C37.1036 34.0322 36.532 34.2364 35.9463 34.2143C35.3607 34.1923 34.806 33.9457 34.3972 33.5258C33.3476 32.4762 33.5428 30.825 34.5284 29.897C35.8794 28.627 36.9556 27.0934 37.6904 25.391C38.4252 23.6886 38.803 21.8536 38.8004 19.9994C38.8004 16.3194 37.338 12.9786 34.9604 10.5274C34.0452 9.58657 33.8948 7.99297 34.9156 6.97537ZM40.5508 1.33697C40.7644 1.119 41.0189 0.945251 41.2998 0.825666C41.5806 0.706081 41.8822 0.643001 42.1874 0.640029C42.4926 0.637058 42.7954 0.694252 43.0785 0.808346C43.3615 0.92244 43.6194 1.0912 43.8372 1.30497C46.301 3.75445 48.2554 6.66746 49.5879 9.87602C50.9203 13.0846 51.6043 16.5252 51.6004 19.9994C51.6044 23.6074 50.8668 27.1778 49.4334 30.4889C47.9999 33.8 45.9013 36.7812 43.2676 39.2474C42.8243 39.6571 42.2388 39.878 41.6354 39.863C41.0319 39.8481 40.4581 39.5986 40.0356 39.1674C39.0244 38.1562 39.1492 36.5466 40.1252 35.6154C42.2382 33.6008 43.9196 31.1777 45.0671 28.4931C46.2146 25.8086 46.8043 22.9188 46.8004 19.9994C46.8004 14.0922 44.4292 8.73537 40.5828 4.83777C39.6548 3.89377 39.5588 2.32577 40.5508 1.33377V1.33697ZM26.0004 15.1994C24.7274 15.1994 23.5065 15.7051 22.6063 16.6053C21.7061 17.5054 21.2004 18.7263 21.2004 19.9994C21.2004 21.2724 21.7061 22.4933 22.6063 23.3935C23.5065 24.2937 24.7274 24.7994 26.0004 24.7994C27.2734 24.7994 28.4943 24.2937 29.3945 23.3935C30.2947 22.4933 30.8004 21.2724 30.8004 19.9994C30.8004 18.7263 30.2947 17.5054 29.3945 16.6053C28.4943 15.7051 27.2734 15.1994 26.0004 15.1994Z" fill="#476FFF"/>
</svg>
