<svg width="56" height="54" viewBox="0 0 56 54" fill="none" xmlns="http://www.w3.org/2000/svg">
<path d="M41.3333 44.6666V53.3333H14.6667V44.6666C14.6667 40.9866 20.64 38 28 38C35.36 38 41.3333 40.9866 41.3333 44.6666ZM28 10.6667C32.5971 10.6667 37.0059 12.4928 40.2565 15.7435C43.5072 18.9941 45.3333 23.4029 45.3333 28C45.3333 31.3333 44.4 34.4533 42.7733 37.0933L38.6667 33.44C39.52 31.8133 40 29.9467 40 28C40 21.3333 34.6667 16 28 16C21.3333 16 16 21.3333 16 28C16 29.9467 16.48 31.8133 17.3333 33.44L13.2267 37.0933C11.6 34.4533 10.6667 31.3333 10.6667 28C10.6667 23.4029 12.4929 18.9941 15.7435 15.7435C18.9941 12.4928 23.4029 10.6667 28 10.6667ZM28 0C35.4261 0 42.548 2.94999 47.799 8.20101C53.05 13.452 56 20.5739 56 28C56 34.08 54.0533 39.7066 50.7733 44.2933L46.7733 40.6933C49.2267 37.0667 50.6667 32.6933 50.6667 28C50.6667 21.9884 48.2786 16.2231 44.0278 11.9722C39.7769 7.72142 34.0116 5.33333 28 5.33333C21.9884 5.33333 16.2231 7.72142 11.9723 11.9722C7.72143 16.2231 5.33334 21.9884 5.33334 28C5.33334 32.6933 6.77334 37.0667 9.22668 40.6933L5.22668 44.2933C1.8226 39.5429 -0.00544741 33.8442 1.21936e-05 28C1.21936e-05 20.5739 2.95 13.452 8.20102 8.20101C13.452 2.94999 20.5739 0 28 0ZM28 21.3333C29.7681 21.3333 31.4638 22.0357 32.7141 23.2859C33.9643 24.5362 34.6667 26.2319 34.6667 28C34.6667 29.7681 33.9643 31.4638 32.7141 32.714C31.4638 33.9643 29.7681 34.6667 28 34.6667C26.2319 34.6667 24.5362 33.9643 23.286 32.714C22.0357 31.4638 21.3333 29.7681 21.3333 28C21.3333 26.2319 22.0357 24.5362 23.286 23.2859C24.5362 22.0357 26.2319 21.3333 28 21.3333Z" fill="#476FFF"/>
</svg>
