<svg width="52" height="44" viewBox="0 0 52 44" fill="none" xmlns="http://www.w3.org/2000/svg">
<path d="M52 42C52 42.5304 51.7893 43.0391 51.4142 43.4142C51.0391 43.7893 50.5304 44 50 44H2C1.46957 44 0.960859 43.7893 0.585786 43.4142C0.210714 43.0391 0 42.5304 0 42C0 41.4696 0.210714 40.9609 0.585786 40.5858C0.960859 40.2107 1.46957 40 2 40H50C50.5304 40 51.0391 40.2107 51.4142 40.5858C51.7893 40.9609 52 41.4696 52 42ZM52 4V32C52 33.0609 51.5786 34.0783 50.8284 34.8284C50.0783 35.5786 49.0609 36 48 36H4C2.93913 36 1.92172 35.5786 1.17157 34.8284C0.421427 34.0783 0 33.0609 0 32V4C0 2.93913 0.421427 1.92172 1.17157 1.17157C1.92172 0.421427 2.93913 0 4 0H48C49.0609 0 50.0783 0.421427 50.8284 1.17157C51.5786 1.92172 52 2.93913 52 4ZM35 18C34.9999 17.6634 34.9148 17.3323 34.7527 17.0373C34.5906 16.7423 34.3566 16.493 34.0725 16.3125L23.0725 9.3125C22.7701 9.12041 22.4218 9.01305 22.0637 9.00163C21.7057 8.99022 21.3512 9.07517 21.0372 9.24761C20.7232 9.42006 20.4613 9.67366 20.2789 9.98192C20.0964 10.2902 20.0001 10.6418 20 11V25C20.0001 25.3582 20.0964 25.7098 20.2789 26.0181C20.4613 26.3263 20.7232 26.5799 21.0372 26.7524C21.3512 26.9248 21.7057 27.0098 22.0637 26.9984C22.4218 26.987 22.7701 26.8796 23.0725 26.6875L34.0725 19.6875C34.3566 19.507 34.5906 19.2577 34.7527 18.9627C34.9148 18.6677 34.9999 18.3366 35 18Z" fill="#476FFF"/>
</svg>
